<?xml version="1.0" encoding="UTF-8" standalone="no"?>
<!-- Created with Inkscape (http://www.inkscape.org/) -->

<svg
   width="650mm"
   height="100mm"
   viewBox="0 0 650 100"
   version="1.1"
   id="svg1"
   inkscape:version="1.4 (e7c3feb1, 2024-10-09)"
   sodipodi:docname="PPG_logo1.svg"
   xml:space="preserve"
   xmlns:inkscape="http://www.inkscape.org/namespaces/inkscape"
   xmlns:sodipodi="http://sodipodi.sourceforge.net/DTD/sodipodi-0.dtd"
   xmlns="http://www.w3.org/2000/svg"
   xmlns:svg="http://www.w3.org/2000/svg"><sodipodi:namedview
     id="namedview1"
     pagecolor="#ffffff"
     bordercolor="#000000"
     borderopacity="0.25"
     inkscape:showpageshadow="2"
     inkscape:pageopacity="0.0"
     inkscape:pagecheckerboard="0"
     inkscape:deskcolor="#d1d1d1"
     inkscape:document-units="mm"
     inkscape:zoom="0.25109399"
     inkscape:cx="1200.7456"
     inkscape:cy="-123.45975"
     inkscape:window-width="1432"
     inkscape:window-height="1013"
     inkscape:window-x="0"
     inkscape:window-y="25"
     inkscape:window-maximized="0"
     inkscape:current-layer="layer3"
     showguides="true" /><defs
     id="defs1" /><g
     inkscape:groupmode="layer"
     id="layer3"
     inkscape:label="Layer 1"
     transform="matrix(4.5257268,0,0,4.5257268,-865.95454,-229.75606)"><path
       id="path26"
       style="display:inline;fill:#000000;fill-opacity:1;stroke:none;stroke-width:0;stroke-dasharray:none;stroke-opacity:1"
       d="M 256.1059 53.546811 L 247.30907 53.584035 L 247.30907 69.920985 L 251.04208 69.920985 L 251.04208 65.559509 L 253.07512 65.559509 L 254.95972 70.032086 L 258.87782 70.032086 L 256.956 65.448979 C 256.956 65.448979 258.76729 64.709367 258.76729 63.526582 C 258.76729 62.343796 258.87782 56.76242 258.87782 56.097104 C 258.87782 55.062168 257.95445 53.539044 256.1059 53.546811 z M 239.25113 53.546925 C 239.25113 53.546925 231.05859 53.662593 229.95897 53.662593 C 228.85935 53.662593 227.70041 55.210257 227.70041 55.98646 L 227.70041 67.90667 C 227.70041 68.812241 228.93863 70.031971 229.82572 70.031971 L 236.99645 70.031971 C 238.29013 70.031971 239.25113 68.516541 239.25113 67.7773 L 239.25113 59.978323 L 233.48496 59.978323 L 233.48496 63.674564 L 235.51789 63.674564 L 235.51789 66.33573 L 231.52603 66.33573 L 231.52603 57.354039 L 239.25113 57.354039 L 239.25113 53.546925 z M 291.7262 53.581409 L 291.7262 70.02101 L 295.46354 70.02101 L 295.46354 53.607557 L 291.7262 53.581409 z M 302.44188 53.581409 L 298.86131 53.607557 L 298.86131 69.968714 L 302.62492 69.968714 L 302.62492 61.709691 L 306.70208 70.047158 L 310.30891 70.047158 L 310.30891 53.633705 L 306.5976 53.633705 L 306.5976 62.07565 L 302.44188 53.581409 z M 197.77971 53.584035 L 197.77971 70.032086 L 201.43896 70.032086 L 201.43896 65.596733 L 206.79829 65.596733 C 207.79626 65.596733 209.2747 64.302999 209.2747 63.637683 L 209.2747 55.949237 C 209.2747 55.246959 208.25102 53.653459 207.21608 53.653459 C 206.18115 53.653459 197.77971 53.584035 197.77971 53.584035 z M 284.74295 53.611667 C 283.00326 53.604317 280.27848 53.633705 279.25916 53.633705 C 277.90008 53.633705 276.80238 55.228 276.80238 56.11663 C 276.80238 57.005257 276.77618 66.884673 276.80238 67.773303 C 276.82852 68.66193 278.10923 69.994862 279.36375 69.994862 C 280.6183 69.994862 284.14661 70.02101 285.74091 70.02101 C 287.33521 70.02101 288.27613 68.426683 288.27613 67.721007 L 288.27613 64.401686 L 284.56482 64.401686 L 284.56482 66.283548 L 280.5137 66.283548 L 280.5137 57.449496 L 284.53867 57.449496 L 284.53867 59.17447 L 288.27613 59.148436 L 288.27613 55.802967 C 288.27613 54.888205 287.1 53.685975 286.05458 53.633705 C 285.79321 53.620637 285.32284 53.614118 284.74295 53.611667 z M 212.71243 53.62103 L 212.71243 70.069081 L 216.37156 70.069081 L 216.37156 65.633729 L 221.731 65.633729 C 222.72897 65.633729 224.20731 64.339995 224.20731 63.674679 L 224.20731 55.986232 C 224.20731 55.283954 223.19676 53.651175 222.16182 53.651175 C 221.12689 53.651175 212.71243 53.62103 212.71243 53.62103 z M 269.53664 53.633591 L 265.85159 53.633705 L 261.1728 69.968599 L 265.01497 69.968599 L 265.61592 67.721121 L 269.64101 67.721121 L 270.24253 70.047158 L 274.1105 70.07342 L 269.53664 53.633591 z M 325.4708 53.634618 C 325.4708 53.634618 317.27837 53.750286 316.17875 53.750286 C 315.07913 53.750286 313.9202 55.29795 313.9202 56.074153 L 313.9202 67.994363 C 313.9202 68.899934 315.15841 70.119665 316.0455 70.119665 L 323.21612 70.119665 C 324.5098 70.119665 325.4708 68.604234 325.4708 67.864993 L 325.4708 60.066016 L 319.70475 60.066016 L 319.70475 63.762258 L 321.73767 63.762258 L 321.73767 66.423538 L 317.74581 66.423538 L 317.74581 57.441732 L 325.4708 57.441732 L 325.4708 53.634618 z M 201.47561 57.427687 L 205.61546 57.427687 L 205.61546 61.900378 L 201.43896 61.900378 L 201.47561 57.427687 z M 251.06023 57.446299 L 254.46108 57.446299 C 254.71981 57.446299 255.15589 57.588165 255.1576 57.914567 L 255.17622 61.43839 C 255.17822 61.789524 254.89899 61.915793 254.66159 61.915793 C 254.42419 61.915793 251.06023 61.881766 251.06023 61.881766 L 251.06023 57.446299 z M 216.40833 57.464683 L 220.54806 57.464683 L 220.54806 61.937259 L 216.37156 61.937259 L 216.40833 57.464683 z M 267.62875 60.402744 L 268.54336 63.696031 L 266.66184 63.748327 L 267.62875 60.402744 z " /></g></svg>
